<svg width="27" height="26" viewBox="0 0 27 26" fill="none" xmlns="http://www.w3.org/2000/svg">
<path d="M13.4959 0.5L13.4956 0.5C10.4116 0.501584 7.42757 1.58278 5.07728 3.55194C2.7268 5.52126 1.16318 8.25064 0.668153 11.2529C0.173108 14.2552 0.779392 17.3325 2.3775 19.934C3.97548 22.5354 6.4603 24.4907 9.38617 25.4524L9.41849 25.463L9.45195 25.4692C9.87527 25.547 10.2576 25.4674 10.5356 25.2193C10.7999 24.9833 10.8972 24.6586 10.8972 24.3866C10.8972 24.2483 10.8949 23.9923 10.8919 23.6647C10.888 23.2313 10.8829 22.6725 10.8806 22.0946L10.8781 21.4789L10.2761 21.6077C8.65306 21.9547 7.7518 21.6042 7.2672 21.2468C7.01656 21.0619 6.85618 20.8598 6.7597 20.7077C6.7115 20.6317 6.67974 20.569 6.66114 20.5284C6.65187 20.5082 6.64595 20.4937 6.64297 20.4861L6.64103 20.481L6.63807 20.4722L6.63293 20.4592C6.32932 19.6958 5.95234 19.192 5.63161 18.8709C5.7504 18.9481 5.85704 19.0354 5.95131 19.1251C6.08579 19.253 6.188 19.3792 6.25587 19.4726C6.28958 19.5189 6.31419 19.5563 6.32949 19.5805C6.33712 19.5926 6.34239 19.6014 6.34526 19.6062L6.34658 19.6085L6.34648 19.6085L6.35287 19.6193C6.99496 20.7036 7.87325 21.1236 8.7087 21.1964C9.51085 21.2662 10.2325 21.0144 10.6237 20.8398L10.8766 20.7269L10.9151 20.4527C11.0128 19.7566 11.2889 19.3325 11.5406 19.1163L12.4123 18.3675L11.2702 18.2401C9.90952 18.0884 8.60594 17.7608 7.64381 16.964C6.7072 16.1884 6.01836 14.9026 6.01836 12.6576H6.01841L6.01831 12.6506C6.00293 11.5587 6.4145 10.5014 7.17015 9.6976L7.39147 9.46219L7.26777 9.16369C7.17732 8.94544 6.82583 7.95846 7.28686 6.5692C7.37854 6.574 7.49906 6.58756 7.64972 6.61882C8.13434 6.71937 8.93493 7.0039 10.0889 7.77262L10.2774 7.89817L10.4961 7.83931C12.4598 7.31074 14.5319 7.31074 16.4956 7.83931L16.7144 7.8982L16.903 7.77251C18.056 7.00379 18.8555 6.71931 19.3393 6.6188C19.4896 6.58756 19.6099 6.574 19.7013 6.56921C20.1635 7.9543 19.8128 8.94149 19.721 9.16582L19.5991 9.46386L19.82 9.69814C20.5779 10.5018 20.9902 11.5608 20.9734 12.654L20.9734 12.654V12.6617C20.9734 14.9119 20.283 16.1959 19.3453 16.9683C18.3816 17.7621 17.0758 18.0851 15.7123 18.2339L14.5641 18.3592L15.4413 19.1107C15.7558 19.3801 16.1132 19.9764 16.1132 21.0107C16.1132 21.8324 16.1096 22.5739 16.1059 23.1608C16.1047 23.3567 16.1035 23.5359 16.1024 23.6954C16.1003 24.0119 16.0987 24.2504 16.0987 24.3866C16.0987 24.654 16.1898 24.9825 16.4566 25.2221C16.7377 25.4745 17.1247 25.5495 17.5509 25.4686L17.5829 25.4626L17.6138 25.4524C20.54 24.4906 23.0251 22.5349 24.6231 19.9331C26.2211 17.3311 26.8271 14.2534 26.3315 11.2508C25.8359 8.24827 24.2715 5.51887 21.9203 3.54989C19.5692 1.58106 16.5845 0.50058 13.5001 0.5H13.5L13.4959 0.5Z" fill="black" stroke="white"/>
</svg>
