<svg width="27" height="26" viewBox="0 0 27 26" fill="none" xmlns="http://www.w3.org/2000/svg">
<path d="M6.60027 25.5H7.10027V25V8.96062V8.46062H6.60027H1.4161H0.916099V8.96062V25V25.5H1.4161H6.60027ZM26 25.5H26.5V25V16.1993C26.5 14.0278 26.2621 11.9877 25.2782 10.4864C24.262 8.93591 22.5237 8.0603 19.7858 8.0603C17.8204 8.0603 16.3008 8.81901 15.3199 9.77896V8.96062V8.46062H14.8199H9.85403H9.35403V8.96062V25V25.5H9.85403H15.0246H15.5246V25V17.0722C15.5246 16.0353 15.6308 15.1209 16.0001 14.4744C16.1781 14.1629 16.4166 13.9152 16.7421 13.7414C17.0712 13.5657 17.5169 13.4508 18.1282 13.4508C18.7172 13.4508 19.1152 13.5826 19.3926 13.7691C19.6698 13.9554 19.8684 14.2242 20.0105 14.5705C20.3073 15.2936 20.3226 16.252 20.3226 17.2034V25V25.5H20.8226H26ZM0.5 3.88761C0.5 5.77726 2.08679 7.27523 4.00819 7.27523C5.92427 7.27523 7.50955 5.76925 7.50955 3.88761C7.50955 1.99869 5.92352 0.5 4.00819 0.5C2.08679 0.5 0.5 1.99796 0.5 3.88761Z" fill="black" stroke="white"/>
</svg>
