<svg width="25" height="27" viewBox="0 0 25 27" fill="none" xmlns="http://www.w3.org/2000/svg">
<path d="M12.4352 1.00032C9.27726 1.01309 6.14171 1.41306 4.5102 2.16348C4.5102 2.16348 1 3.75754 1 9.18727C1 15.6506 0.995295 23.7674 6.81562 25.3371C9.04463 25.9347 10.9615 26.0634 12.5026 25.9747C15.2993 25.8172 16.6826 24.9623 16.6826 24.9623L16.5886 22.9008C16.5886 22.9008 14.7759 23.538 12.5312 23.465C10.3074 23.3868 7.96463 23.2203 7.59975 20.4502C7.56629 20.1926 7.54969 19.9317 7.55074 19.672C12.2628 20.8391 16.2809 20.1803 17.3871 20.0468C20.4755 19.6724 23.164 17.7405 23.5069 15.9748C24.0443 13.1921 23.9991 9.18727 23.9991 9.18727C23.9991 3.75754 20.495 2.16348 20.495 2.16348C18.7746 1.36195 15.5932 0.98754 12.4352 1.00032ZM9.05569 5.14166C10.1377 5.17061 11.2068 5.6535 11.8655 6.67353L12.5026 7.75318L13.1377 6.67353C14.4602 4.622 17.4245 4.75001 18.8348 6.33742C20.1354 7.84765 19.8456 8.82237 19.8456 15.5694V15.5714H17.287V9.70061C17.287 6.95237 13.7748 6.84623 13.7748 10.0815V13.4834H11.2325V10.0815C11.2325 6.84623 7.72227 6.95033 7.72227 9.69857V15.5694H5.15751C5.15751 8.81716 4.87292 7.83618 6.1683 6.33742C6.87872 5.5385 7.97373 5.11272 9.05569 5.14166Z" fill="black" stroke="white"/>
</svg>
