<svg width="32" height="27" viewBox="0 0 32 27" fill="none" xmlns="http://www.w3.org/2000/svg">
<path d="M10.1231 26C21.0638 26 27.0496 16.3808 27.0496 8.04153C27.0496 7.7711 27.0439 7.49467 27.0326 7.22425C28.197 6.33082 29.2019 5.22419 30 3.95634C28.9155 4.46825 27.7642 4.80257 26.5851 4.94789C27.8265 4.1584 28.7561 2.91814 29.2014 1.45703C28.0335 2.19135 26.7563 2.70935 25.4246 2.98883C24.5273 1.97726 23.3409 1.30749 22.0488 1.08305C20.7567 0.858618 19.4309 1.09203 18.2764 1.74719C17.1219 2.40235 16.203 3.44278 15.6617 4.70761C15.1205 5.97244 14.987 7.39124 15.2819 8.74463C12.9172 8.61872 10.6038 7.96697 8.49164 6.83162C6.37953 5.69627 4.51588 4.10267 3.0215 2.15412C2.26198 3.54347 2.02957 5.18751 2.3715 6.75213C2.71342 8.31674 3.60403 9.68452 4.86232 10.5775C3.91768 10.5457 2.99372 10.2758 2.1668 9.79026V9.86838C2.16595 11.3264 2.64103 12.7397 3.51129 13.8681C4.38155 14.9965 5.59327 15.7703 6.94047 16.0581C6.0654 16.3121 5.14698 16.3491 4.25627 16.1662C4.63642 17.4201 5.37607 18.5168 6.37197 19.3033C7.36788 20.0897 8.57035 20.5266 9.81158 20.5531C7.70435 22.3093 5.10129 23.2618 2.42168 23.2573C1.94647 23.2565 1.47173 23.2256 1 23.1648C3.7222 25.0177 6.88885 26.0018 10.1231 26Z" fill="black" stroke="white"/>
</svg>
